<?xml version="1.0" standalone="no"?>
<!DOCTYPE svg PUBLIC "-//W3C//DTD SVG 20010904//EN"
 "http://www.w3.org/TR/2001/REC-SVG-20010904/DTD/svg10.dtd">
<svg version="1.0" xmlns="http://www.w3.org/2000/svg"
 width="512.000000pt" height="512.000000pt" viewBox="0 0 512.000000 512.000000"
 preserveAspectRatio="xMidYMid meet">

<g transform="translate(0.000000,512.000000) scale(0.100000,-0.100000)"
fill="#000000" stroke="none">
<path d="M2400 5114 c-399 -35 -718 -119 -1036 -273 -368 -179 -649 -402 -901
-716 -281 -350 -427 -642 -458 -913 -7 -61 -6 -65 30 -123 l37 -60 -2 -179
c-1 -268 29 -496 101 -757 20 -70 37 -114 46 -118 21 -7 50 20 130 124 l65 84
-26 166 c-37 234 -46 327 -46 478 l0 132 40 46 c71 82 95 146 135 360 22 114
34 155 71 229 114 226 281 432 499 614 251 211 592 380 930 463 208 51 319 64
550 63 239 0 336 -12 585 -75 552 -138 991 -443 1299 -902 110 -165 125 -202
161 -407 11 -63 30 -148 42 -188 18 -64 27 -78 70 -113 l48 -41 0 -148 c0
-181 -12 -308 -46 -508 -27 -150 -27 -153 -9 -193 20 -42 157 -179 180 -179
19 0 24 11 45 98 63 263 91 491 95 756 l4 218 28 40 c61 87 58 77 40 173 -51
258 -161 475 -417 820 -394 532 -1050 911 -1750 1010 -109 16 -444 27 -540 19z"/>
<path d="M1706 2689 c-14 -17 -26 -34 -26 -39 0 -4 9 -68 20 -142 26 -172 54
-474 46 -494 -3 -9 -15 -14 -28 -12 -28 4 -40 41 -83 253 -53 258 -96 366
-165 413 -30 20 -43 23 -89 19 -145 -15 -291 -149 -291 -267 0 -25 24 -194 54
-375 63 -378 166 -1049 226 -1465 23 -157 48 -305 56 -330 33 -102 117 -179
242 -222 86 -29 262 -32 362 -5 225 60 393 213 415 377 13 96 -200 1844 -245
2009 -41 155 -256 311 -426 311 -35 0 -47 -5 -68 -31z"/>
<path d="M3250 2701 c-86 -28 -139 -59 -202 -119 -60 -57 -98 -113 -116 -172
-37 -118 -243 -1776 -244 -1965 -1 -105 28 -171 111 -254 112 -113 266 -178
446 -188 216 -12 383 70 450 221 17 38 36 141 74 406 74 510 153 1022 222
1431 57 346 58 357 44 406 -41 139 -258 263 -363 209 -71 -37 -117 -146 -172
-411 -47 -226 -60 -265 -89 -265 -11 0 -22 4 -25 8 -8 14 12 239 40 449 26
201 25 219 -15 250 -23 18 -97 15 -161 -6z"/>
<path d="M821 2484 c-58 -18 -98 -58 -112 -109 -14 -50 -7 -102 67 -520 30
-170 55 -328 57 -350 2 -37 0 -40 -23 -40 -25 0 -26 3 -90 315 -36 173 -69
321 -74 328 -6 10 -19 12 -44 7 -89 -17 -186 -97 -197 -162 -10 -61 -12 -63
-53 -63 -50 0 -98 -32 -139 -93 -61 -91 -66 -155 -28 -344 42 -204 122 -432
221 -625 55 -105 125 -175 221 -221 59 -28 79 -32 148 -32 65 0 89 5 127 24
25 13 53 21 61 18 10 -4 18 -36 27 -103 17 -139 44 -218 89 -267 34 -36 44
-41 92 -44 33 -2 64 1 79 10 22 12 25 19 22 63 -5 85 -60 461 -142 969 -96
595 -122 770 -155 1033 -13 112 -27 208 -30 213 -9 13 -72 9 -124 -7z"/>
<path d="M4185 2478 c-3 -13 -14 -97 -25 -188 -30 -238 -71 -513 -155 -1035
-85 -529 -132 -847 -141 -957 l-7 -77 29 -12 c38 -14 113 -7 147 15 44 29 85
127 103 246 22 148 23 150 40 150 8 0 34 -10 57 -22 34 -18 58 -23 127 -23 77
0 92 3 153 33 93 46 165 119 216 219 94 188 176 418 217 606 33 157 35 245 5
312 -36 81 -108 145 -165 145 -42 0 -56 10 -56 42 0 39 -22 80 -61 112 -60 51
-150 85 -177 68 -7 -5 -40 -143 -77 -320 -35 -171 -66 -316 -70 -322 -9 -14
-42 -13 -47 2 -3 7 13 112 34 233 109 626 110 642 79 703 -22 42 -44 58 -110
78 -71 21 -110 19 -116 -8z"/>
</g>
</svg>
